<svg width="91" height="90" viewBox="0 0 91 90" fill="none" xmlns="http://www.w3.org/2000/svg">
<path d="M78.596 14.211L77.7772 23.6142L86.6851 26.7348L82.8575 35.3625L90.2695 41.2064L83.8478 48.1239L88.9607 56.0579L80.6409 60.5154L82.9005 69.6797L73.5842 71.1942L72.7458 80.5957L63.4424 79.0031L59.5969 87.6229L51.3146 83.0959L44.8786 90L38.5151 83.029L30.186 87.4693L26.4307 78.8097L17.1111 80.305L16.371 70.8954L7.07104 69.2835L9.42632 60.1434L1.15354 55.5991L6.34903 47.7191L0 40.7348L7.47268 34.9687L3.73541 26.3014L12.6755 23.2741L11.9549 13.8629L21.3936 13.9023L23.7679 4.76715L32.6823 7.86928L37.8942 0L45.3184 5.82851L52.803 0.0778322L57.9324 8.00117L66.8787 4.99241L69.1574 14.1519L78.596 14.211Z" fill="#4A3AFF"/>
<path d="M59.5868 21.2324L61.0835 22.6297L69.0537 22.0487L83.9492 32.4705L82.8576 35.3617L90.2696 41.2057L83.8479 48.1232L88.9608 56.0571L80.641 60.5147L82.9007 69.679L73.5843 71.1935L72.746 80.595L63.4425 79.0023L59.597 87.6222L51.3148 83.0952L46.3221 88.3321L33.4009 73.1204L36.6259 70.6764L47.0457 45.0611L59.5868 21.2324Z" fill="#1D09FE"/>
<path d="M59.5524 22.0487C59.5676 21.7715 59.5866 21.4918 59.5866 21.2324H31.0408C31.0408 21.4918 31.0586 21.7715 31.0739 22.0487H21.5752C21.5752 22.0487 25.1636 39.6602 38.2558 39.6602C38.322 39.6602 38.3932 39.6538 38.4632 39.6526C39.2108 40.4805 39.9967 41.2154 40.8207 41.7991C40.2408 41.8105 39.7742 42.2747 39.7742 42.8533C39.7742 43.4394 40.2511 43.9151 40.8348 43.9151H42.2349L39.0343 57.3824H36.6564V70.134H54.7181V57.3825H52.3352L49.1334 43.9152H50.5373C51.1197 43.9152 51.5965 43.4396 51.5965 42.8534C51.5965 42.2698 51.1209 41.7929 50.5373 41.7929H49.8137C50.6338 41.2104 51.4159 40.4781 52.1635 39.6527C52.2308 39.6541 52.3022 39.6603 52.3682 39.6603C65.4618 39.6603 69.054 22.0489 69.054 22.0489L59.5524 22.0487ZM24.0585 23.9409H31.2786C31.9424 28.1918 33.987 33.6138 36.8597 37.6587C29.0966 36.7165 25.4027 28.1321 24.0585 23.9409ZM52.1644 59.1308V68.0001H39.006V59.1308H52.1644ZM53.768 37.6589C56.6392 33.6152 58.6827 28.1931 59.3464 23.941H66.5703C65.2224 28.1346 61.5259 36.7178 53.768 37.6589Z" fill="#FFC400"/>
<path d="M36.6562 57.3824V70.1339H45.2054V68.0001H39.006V59.1307C39.006 59.1307 42.116 59.1307 45.2054 59.1307V21.2324H31.0408C31.0408 21.4918 31.0586 21.7715 31.0739 22.0487H21.5752C21.5752 22.0487 25.1636 39.6602 38.2558 39.6602C38.322 39.6602 38.3932 39.6538 38.4632 39.6526C39.2108 40.4805 39.9967 41.2154 40.8207 41.7991C40.2408 41.8105 39.7742 42.2747 39.7742 42.8533C39.7742 43.4394 40.2511 43.9151 40.8347 43.9151H42.2347L39.0342 57.3824H36.6562ZM24.0585 23.9409H31.2786C31.9424 28.1918 33.987 33.6138 36.8597 37.6587C29.0966 36.7165 25.4027 28.1321 24.0585 23.9409Z" fill="#FFE400"/>
<path d="M39.006 68.0005V59.1311C39.006 59.1311 39.1847 59.1311 39.4962 59.1311C39.479 59.0507 39.4702 58.9626 39.4917 58.8694C40.3302 55.2355 40.9583 52.4088 41.739 48.8958C42.2461 46.6135 42.528 45.0356 42.8943 43.5141C42.0772 43.5985 40.6295 43.9061 40.5556 42.9224C40.471 41.7953 41.683 41.9699 41.739 41.9643C40.781 41.0909 38.4706 38.4987 35.8404 33.2012C34.7335 30.9717 33.0811 25.0906 32.7862 21.2324H31.0408C31.0408 21.4918 31.0586 21.7715 31.0739 22.0487H21.5752C21.5752 22.0487 25.1636 39.6602 38.2558 39.6602C38.322 39.6602 38.3932 39.6538 38.4632 39.6526C39.2108 40.4805 39.9967 41.2154 40.8207 41.7991C40.2408 41.8105 39.7742 42.2747 39.7742 42.8533C39.7742 43.4394 40.2511 43.915 40.8347 43.915H42.2347L39.0342 57.3824H36.6563V70.1339H45.2055V68.0001H39.006V68.0005ZM24.0584 23.9411H31.2784C31.9423 28.192 33.9869 33.6141 36.8595 37.659C29.0965 36.7168 25.4025 28.1324 24.0584 23.9411Z" fill="#FFCF00"/>
<path d="M40.7319 59.1314H41.3782C41.5824 57.9139 41.5935 56.6774 41.7206 55.4477C41.7792 54.8814 41.879 54.3234 41.9908 53.7676C41.5056 55.5383 41.0532 57.3173 40.7319 59.1314Z" fill="#FFE400"/>
<path d="M37.8967 21.2324C37.7634 25.0069 38.0902 28.0534 39.6029 32.2814C41.9079 38.7239 44.2747 41.0908 44.2747 42.6405C44.2747 46.5708 42.9476 56.7807 42.6627 59.1308H45.2051V21.2324H37.8967Z" fill="#FFCF00"/>
<path d="M57.2292 70H33.4009V73.1205H57.2292V70Z" fill="#001A36"/>
<path d="M45.185 70H33.4009V73.1205H45.185V70Z" fill="#324B60"/>
<path d="M31.0739 22.0488H21.5752C21.5752 22.0488 22.6443 27.4651 26.0224 32.4879C29.4005 37.5107 33.3504 38.8206 34.0011 38.9998C37.068 39.8444 38.4632 39.6527 38.4632 39.6527C38.4632 39.6527 34.4678 39.5553 30.534 36.5995C27.5688 34.3714 25.3335 30.6877 23.9555 27.265C22.7743 24.3312 22.3776 22.5756 22.3776 22.5756L31.1119 22.5978L31.0739 22.0488Z" fill="#FFE400"/>
<path d="M59.5522 22.0488H69.0536C69.0536 22.0488 67.738 28.5319 63.7375 33.6436C60.2248 38.1321 56.9367 39.0219 54.8476 39.4664C52.7585 39.9109 52.1631 39.6526 52.1631 39.6526C52.1631 39.6526 53.8033 39.6004 55.4032 39.133C57.3812 38.5551 60.7371 36.9105 63.7597 32.5989C67.2131 27.6727 67.8491 22.8201 67.8491 22.8201L59.4259 22.7979L59.5522 22.0488Z" fill="#FFE400"/>
<path d="M52.1207 59.1568L38.2998 58.8496L39.0304 67.8714L39.0489 67.9637L52.1207 59.1568Z" fill="#FFE400"/>
<path d="M52.1643 59.1309H39.0059V68.0001H52.1643V59.1309Z" fill="#F19000"/>
<path d="M51.9678 59.7441H39.5522V67.7833H51.9678V59.7441Z" fill="#F7B033"/>
<path d="M30.9033 22.0069C30.9033 22.0069 32.3153 21.8955 33.0956 21.0036C33.8803 20.1068 34.0804 18.9785 34.0804 18.9785C34.0804 18.9785 34.3218 20.3163 35.2694 21.0408C36.1142 21.6868 37.3316 21.9511 37.3316 21.9511C37.3316 21.9511 36.0125 22.1556 35.2694 22.8987C34.5262 23.6418 34.136 25.0168 34.136 25.0168C34.136 25.0168 33.6344 22.0441 30.9033 22.0069Z" fill="white"/>
</svg>
