<svg width="22" height="22" viewBox="0 0 22 22" fill="none" xmlns="http://www.w3.org/2000/svg">
<path d="M3 6.5C3 4.843 3 4.015 3.464 3.464C3.929 3 4.757 3 6.414 3H8.5C9.328 3 9.742 3 10.121 3.121C10.5 3.243 10.828 3.472 11.485 3.929L12.515 4.571C13.172 5.028 13.5 5.257 13.879 5.379C14.258 5.5 14.672 5.5 15.5 5.5H16.586C18.243 5.5 19.071 5.5 19.536 6.036C20 6.571 20 7.399 20 9.056V13.5C20 16.328 20 17.743 19.121 18.621C18.243 19.5 16.828 19.5 14 19.5H8C5.172 19.5 3.757 19.5 2.879 18.621C2 17.743 2 16.328 2 13.5V8" stroke="#4747E1" stroke-width="1.5" stroke-linecap="round" stroke-linejoin="round"/>
<path d="M3 8.5H19" stroke="#4747E1" stroke-width="1.5" stroke-linecap="round"/>
<path d="M6 12.5H10M6 15.5H14" stroke="#4747E1" stroke-width="1.5" stroke-linecap="round"/>
<circle cx="16.5" cy="13" r="1.5" stroke="#4747E1" stroke-width="1.5"/>
</svg> 