<svg width="32" height="32" viewBox="0 0 32 32" fill="none" xmlns="http://www.w3.org/2000/svg">
<path d="M6.06079 31.5146C5.52746 31.5146 5.04261 31.3691 4.60624 31.0297C4.07291 30.6418 3.782 30.06 3.68503 29.4297L0.727456 7.66001C0.533517 6.35092 1.45473 5.1388 2.76382 4.94486L5.23655 4.60547C5.382 4.60547 5.52746 4.60547 5.62443 4.70244C5.7214 4.79941 5.76988 4.94486 5.76988 5.09032V24.8721C5.76988 25.6479 6.40018 26.3267 7.17594 26.3267H22.2062C22.3517 26.3267 22.5456 26.2782 22.6911 26.2297C22.8365 26.1812 22.982 26.1812 23.1275 26.2782C23.2729 26.3752 23.3214 26.5206 23.3214 26.6661V26.763C23.4669 28.0721 22.5456 29.2843 21.285 29.4297L6.40018 31.5146C6.30321 31.5146 6.20624 31.5146 6.06079 31.5146ZM4.80018 5.62365L2.90927 5.91456C2.13352 6.01153 1.60018 6.7388 1.69715 7.51456L4.70321 29.2843C4.7517 29.6721 4.94564 30.0115 5.28503 30.254C5.57594 30.4964 5.96382 30.5933 6.3517 30.5449L21.2365 28.5085C21.8668 28.4115 22.3517 27.9267 22.4487 27.2964C22.4002 27.2964 22.3517 27.2964 22.3032 27.2964H7.27291C5.96382 27.2964 4.89715 26.2297 4.89715 24.8721V5.62365H4.80018Z" fill="white"/>
<path d="M22.206 27.2965H7.17571C5.86662 27.2965 4.75146 26.2298 4.75146 24.8723V2.90862C4.75146 1.59953 5.81813 0.484375 7.17571 0.484375H22.206C23.3696 0.484375 24.3878 1.30862 24.5818 2.47225C24.6303 2.71468 24.4363 3.00559 24.1939 3.05407C23.9515 3.10256 23.6606 2.90862 23.6121 2.66619C23.5151 1.93892 22.9333 1.45407 22.206 1.45407H7.17571C6.39995 1.45407 5.72116 2.08438 5.72116 2.90862V24.8723C5.72116 25.648 6.35146 26.3268 7.17571 26.3268H22.206C22.9818 26.3268 23.6606 25.6965 23.6606 24.8723C23.6606 24.5813 23.8545 24.3874 24.1454 24.3874C24.4363 24.3874 24.6303 24.5813 24.6303 24.8723C24.6303 26.1813 23.5636 27.2965 22.206 27.2965ZM24.1454 15.7571C23.8545 15.7571 23.6606 15.5632 23.6606 15.2723V9.74498C23.6606 9.45407 23.8545 9.26013 24.1454 9.26013C24.4363 9.26013 24.6303 9.45407 24.6303 9.74498V15.2723C24.6303 15.5147 24.3878 15.7571 24.1454 15.7571Z" fill="white"/>
<path d="M29.2366 29.4308C28.8488 29.4308 28.4124 29.2853 28.1215 28.9944L23.0306 24.3399C22.8366 24.1459 22.8366 23.855 22.9821 23.6611C23.1276 23.4672 23.4669 23.4672 23.6609 23.6126L28.7518 28.2672C29.0427 28.5096 29.4306 28.5096 29.7215 28.2672C29.9639 28.0247 30.0124 27.5884 29.7215 27.2975L25.0669 22.2065C24.873 22.0126 24.9215 21.7217 25.1154 21.5278C25.3094 21.3338 25.6003 21.3823 25.7942 21.5762L30.4488 26.6672C31.0306 27.3459 31.0306 28.3156 30.4003 28.9459C30.0609 29.2853 29.673 29.4308 29.2366 29.4308Z" fill="white"/>
<path d="M20.7033 24.9693C19.2488 24.9693 17.7942 24.436 16.6791 23.3208C14.4488 21.0905 14.4488 17.5026 16.6791 15.2723C18.9094 13.042 22.4973 13.042 24.7276 15.2723C26.9579 17.5026 26.9579 21.0905 24.7276 23.3208C23.6124 24.436 22.1579 24.9693 20.7033 24.9693ZM20.7033 14.5451C19.4912 14.5451 18.2791 15.0299 17.3579 15.9511C15.5154 17.7935 15.5154 20.7996 17.3579 22.642C19.2003 24.4845 22.2063 24.4845 24.0488 22.642C25.8912 20.7996 25.8912 17.7935 24.0488 15.9511C23.1276 15.0299 21.9154 14.5451 20.7033 14.5451Z" fill="white"/>
<path d="M20.703 23.1754C19.6849 23.1754 18.7152 22.7875 17.9394 22.0117C17.7455 21.8178 17.7455 21.5269 17.9394 21.333C18.1333 21.139 18.4242 21.139 18.6182 21.333C19.7818 22.4966 21.6242 22.4966 22.7879 21.333C22.9818 21.139 23.2727 21.139 23.4667 21.333C23.6606 21.5269 23.6606 21.8178 23.4667 22.0117C22.7394 22.7875 21.7212 23.1754 20.703 23.1754Z" fill="white"/>
<path d="M26.5212 10.9086C25.6969 10.9086 24.8242 10.6662 24.097 10.2783L22.303 10.5692C22.1576 10.6177 21.9636 10.5692 21.8666 10.4237C21.7697 10.3268 21.7212 10.1328 21.7212 9.98738L22.1091 7.95102C21.8666 7.3692 21.7212 6.7389 21.7212 6.10859C21.7212 3.49041 23.8545 1.30859 26.5212 1.30859C29.1394 1.30859 31.3212 3.44193 31.3212 6.10859C31.3212 8.77526 29.1879 10.9086 26.5212 10.9086ZM24.2424 9.26011C24.3394 9.26011 24.4363 9.30859 24.4848 9.35708C25.1151 9.74496 25.7939 9.9389 26.5212 9.9389C28.606 9.9389 30.3515 8.24193 30.3515 6.10859C30.3515 3.97526 28.6545 2.27829 26.5212 2.27829C24.3879 2.27829 22.6909 3.97526 22.6909 6.10859C22.6909 6.64193 22.7879 7.22375 23.0303 7.70859C23.0788 7.80556 23.0788 7.90253 23.0788 7.9995L22.7879 9.50253L24.097 9.26011H24.2424Z" fill="white"/>
<path d="M25.7453 8.53202C25.4059 8.53202 25.115 8.38657 24.8726 8.19263L23.9999 7.3199C23.515 6.83505 23.515 6.05929 23.9999 5.57444C24.4847 5.0896 25.2605 5.0896 25.6968 5.57444L27.1999 4.07141C27.6847 3.63505 28.4605 3.63505 28.9453 4.07141C29.1877 4.31384 29.2847 4.60475 29.2847 4.94414C29.2847 5.28353 29.1393 5.57444 28.9453 5.81687L26.5696 8.19263C26.4241 8.38657 26.0847 8.53202 25.7453 8.53202ZM24.9211 6.20475C24.8726 6.20475 24.7756 6.25323 24.7271 6.30172C24.6302 6.39869 24.6302 6.54414 24.7271 6.64111L25.5999 7.51384C25.6968 7.61081 25.8423 7.61081 25.9393 7.51384L28.315 5.13808C28.412 5.04111 28.412 4.89566 28.315 4.79869C28.2665 4.7502 28.1696 4.70172 28.1211 4.70172C28.0726 4.70172 28.0241 4.70172 27.9271 4.79869L26.0847 6.64111C25.9877 6.73808 25.8908 6.78657 25.7453 6.78657C25.5999 6.78657 25.5029 6.73808 25.4059 6.64111L25.0665 6.30172C25.018 6.20475 24.9696 6.20475 24.9211 6.20475Z" fill="white"/>
<path d="M10.2305 6.44921C9.21228 6.44921 8.43652 5.62496 8.43652 4.65527C8.43652 3.68557 9.26077 2.86133 10.2305 2.86133C11.2002 2.86133 12.0244 3.68557 12.0244 4.65527C12.0244 5.62496 11.2002 6.44921 10.2305 6.44921ZM10.2305 3.78254C9.74561 3.78254 9.40622 4.17042 9.40622 4.60678C9.40622 5.04315 9.7941 5.43103 10.2305 5.43103C10.7153 5.43103 11.0547 5.04315 11.0547 4.60678C11.0547 4.17042 10.6668 3.78254 10.2305 3.78254Z" fill="white"/>
<path d="M11.6365 11.3945H8.77587C7.85466 11.3945 7.0789 10.7158 6.98193 9.84303C6.98193 9.69757 6.98193 9.6006 6.98193 9.45515C6.98193 8.53394 7.4183 6.98242 10.2304 6.98242C13.0425 6.98242 13.4789 8.53394 13.4789 9.45515V9.84303C13.3334 10.7642 12.5577 11.3945 11.6365 11.3945ZM10.2304 7.95212C7.95163 7.95212 7.95163 9.06727 7.95163 9.45515V9.74606C8.00012 10.1339 8.33951 10.4248 8.77587 10.4248H11.6365C12.0728 10.4248 12.4122 10.1339 12.4607 9.74606C12.4607 9.64909 12.4607 9.55212 12.4607 9.45515C12.5092 9.06727 12.5092 7.95212 10.2304 7.95212Z" fill="white"/>
<path d="M19.9272 5.86705H15.0303C14.7393 5.86705 14.5454 5.67311 14.5454 5.3822V3.29735C14.5454 3.00644 14.7393 2.8125 15.0303 2.8125H19.9272C20.2181 2.8125 20.4121 3.00644 20.4121 3.29735V5.33371C20.4121 5.62462 20.1697 5.86705 19.9272 5.86705ZM15.5151 4.89735H19.4424V3.7822H15.5151V4.89735Z" fill="white"/>
<path d="M19.9272 7.80563H15.0303C14.7393 7.80563 14.5454 7.6117 14.5454 7.32079C14.5454 7.02988 14.7393 6.83594 15.0303 6.83594H19.9272C20.2181 6.83594 20.4121 7.02988 20.4121 7.32079C20.4121 7.6117 20.1697 7.80563 19.9272 7.80563Z" fill="white"/>
<path d="M19.9272 9.60056H15.0303C14.7393 9.60056 14.5454 9.40662 14.5454 9.11571C14.5454 8.8248 14.7393 8.63086 15.0303 8.63086H19.9272C20.2181 8.63086 20.4121 8.8248 20.4121 9.11571C20.4121 9.40662 20.1697 9.60056 19.9272 9.60056Z" fill="white"/>
<path d="M19.9272 11.3935H15.0303C14.7393 11.3935 14.5454 11.1996 14.5454 10.9087C14.5454 10.6178 14.7393 10.4238 15.0303 10.4238H19.9272C20.2181 10.4238 20.4121 10.6178 20.4121 10.9087C20.4121 11.1996 20.1697 11.3935 19.9272 11.3935Z" fill="white"/>
<path d="M10.2304 16.0481H7.46678C7.17587 16.0481 6.98193 15.8542 6.98193 15.5633V12.8481C6.98193 12.5572 7.17587 12.3633 7.46678 12.3633H10.2304C10.5213 12.3633 10.7153 12.5572 10.7153 12.8481V15.5633C10.7153 15.8542 10.4728 16.0481 10.2304 16.0481ZM7.95163 15.0784H9.74557V13.333H7.95163V15.0784Z" fill="white"/>
<path d="M10.2304 20.4134H7.46678C7.17587 20.4134 6.98193 20.2194 6.98193 19.9285V17.2134C6.98193 16.9225 7.17587 16.7285 7.46678 16.7285H10.2304C10.5213 16.7285 10.7153 16.9225 10.7153 17.2134V19.9285C10.7153 20.1709 10.4728 20.4134 10.2304 20.4134ZM7.95163 19.4437H9.74557V17.6982H7.95163V19.4437Z" fill="white"/>
<path d="M10.2304 24.7278H7.46678C7.17587 24.7278 6.98193 24.5339 6.98193 24.243V21.5278C6.98193 21.2369 7.17587 21.043 7.46678 21.043H10.2304C10.5213 21.043 10.7153 21.2369 10.7153 21.5278V24.243C10.7153 24.5339 10.4728 24.7278 10.2304 24.7278ZM7.95163 23.7581H9.74557V22.0127H7.95163V23.7581Z" fill="white"/>
<path d="M13.9638 13.5752H12.0244C11.7335 13.5752 11.5396 13.3812 11.5396 13.0903C11.5396 12.7994 11.7335 12.6055 12.0244 12.6055H13.9638C14.2547 12.6055 14.4486 12.7994 14.4486 13.0903C14.4486 13.3812 14.2547 13.5752 13.9638 13.5752Z" fill="white"/>
<path d="M14.2062 15.8545H12.0244C11.7335 15.8545 11.5396 15.6605 11.5396 15.3696C11.5396 15.0787 11.7335 14.8848 12.0244 14.8848H14.2062C14.4971 14.8848 14.6911 15.0787 14.6911 15.3696C14.6911 15.6605 14.4486 15.8545 14.2062 15.8545Z" fill="white"/>
<path d="M13.5274 17.8916H12.0244C11.7335 17.8916 11.5396 17.6976 11.5396 17.4067C11.5396 17.1158 11.7335 16.9219 12.0244 16.9219H13.5274C13.8183 16.9219 14.0123 17.1158 14.0123 17.4067C14.0123 17.6976 13.7699 17.8916 13.5274 17.8916Z" fill="white"/>
<path d="M13.5274 20.1709H12.0244C11.7335 20.1709 11.5396 19.9769 11.5396 19.686C11.5396 19.3951 11.7335 19.2012 12.0244 19.2012H13.5274C13.8183 19.2012 14.0123 19.3951 14.0123 19.686C14.0123 19.9769 13.8183 20.1709 13.5274 20.1709Z" fill="white"/>
<path d="M13.9638 22.2549H12.0244C11.7335 22.2549 11.5396 22.0609 11.5396 21.77C11.5396 21.4791 11.7335 21.2852 12.0244 21.2852H13.9638C14.2547 21.2852 14.4486 21.4791 14.4486 21.77C14.4486 22.0609 14.2547 22.2549 13.9638 22.2549Z" fill="white"/>
<path d="M15.6123 24.5342H12.0244C11.7335 24.5342 11.5396 24.3402 11.5396 24.0493C11.5396 23.7584 11.7335 23.5645 12.0244 23.5645H15.6123C15.9032 23.5645 16.0971 23.7584 16.0971 24.0493C16.0971 24.3402 15.9032 24.5342 15.6123 24.5342Z" fill="white"/>
</svg>
