<svg width="33" height="46" viewBox="0 0 33 46" fill="none" xmlns="http://www.w3.org/2000/svg">
<path fill-rule="evenodd" clip-rule="evenodd" d="M0.191406 20.8447V38.5313H21.0357L9.95942 23.9096C11.213 23.9096 12.7376 23.9649 13.9452 23.7872L10.954 19.8306H14.0794C19.445 19.8306 23.8348 15.4408 23.8348 10.0751C23.8348 4.7096 19.445 0.319794 14.0794 0.319794H0.191406V20.8447Z" fill="#4747E1"/>
<path fill-rule="evenodd" clip-rule="evenodd" d="M12.99 20.8452L15.0493 23.5695C17.118 23.0534 18.9712 21.9766 20.4362 20.5115C21.8688 19.079 22.9301 17.2753 23.4589 15.262C22.9662 16.138 22.356 16.94 21.6498 17.6462C19.676 19.62 16.9527 20.8452 13.9571 20.8452H12.99Z" fill="#7B72E7"/>
<path fill-rule="evenodd" clip-rule="evenodd" d="M22.3058 38.5316L26.784 44.4432C29.0114 47.3837 33.9071 45.5415 32.7064 41.255L31.9434 38.5317L24.7925 13.5334C24.5086 16.5211 23.1687 19.213 21.1532 21.2286C18.873 23.5088 15.7271 24.9243 12.2666 24.9243H11.9978L22.3058 38.5316Z" fill="#7B72E7"/>
</svg>
