<svg width="22" height="22" viewBox="0 0 22 22" fill="none" xmlns="http://www.w3.org/2000/svg">
<path d="M18 15C18 17.828 18 19.243 17.121 20.121C16.243 21 14.828 21 12 21H10C7.172 21 5.757 21 4.879 20.121C4 19.243 4 17.828 4 15V11M4 7C4 4.172 4 2.757 4.879 1.879C5.757 1 7.172 1 10 1H12C14.828 1 16.243 1 17.121 1.879C18 2.757 18 4.172 18 7V11" stroke="#4A3AFF" stroke-width="1.5" stroke-linecap="round"/>
<path d="M4 3.076C3.025 3.172 2.369 3.389 1.879 3.879C1 4.757 1 6.172 1 9V13C1 15.828 1 17.243 1.879 18.121C2.369 18.611 3.025 18.828 4 18.924M18 3.076C18.975 3.172 19.631 3.389 20.121 3.879C21 4.757 21 6.172 21 9V13C21 15.828 21 17.243 20.121 18.121C19.631 18.611 18.975 18.828 18 18.924" stroke="#4A3AFF" stroke-width="1.5"/>
<path d="M8 12H14M8 8H14M8 16H11" stroke="#4A3AFF" stroke-width="1.5" stroke-linecap="round"/>
</svg>
